<?xml version="1.0" encoding="UTF-8"?>
<svg id="Layer_2" xmlns="http://www.w3.org/2000/svg" viewBox="0 0 521.35 556.93">
  <defs>
    <style>
      .cls-1 {
        fill: #fff;
      }
    </style>
  </defs>
  <g id="Layer_1-2" data-name="Layer_1">
    <path class="cls-1" d="M521.35,204.73c-.13-35.22-12.28-69.34-34.44-96.72,7.52-31.3,5.18-64.16-6.72-94.08-2.34-5.76-7.14-10.16-13.08-12-8.4-2.88-40.2-8.28-105,33.72-27.87-7.36-56.62-10.83-85.44-10.32-28.86-.51-57.65,2.96-85.56,10.32C124.62-7.32,90.06-.36,83.1,1.68h0c-5.97,1.93-10.77,6.41-13.08,12.24-11.92,29.82-14.36,62.59-6.96,93.84-22.88,27.24-35.08,61.87-34.32,97.44,0,132.72,75.96,172.8,145.56,186.96-3.57,8.74-6.04,17.89-7.32,27.24-.12,1-.12,2,0,3v36.72c-63.36,5.28-76.92-31.8-78.24-36h0c-.3-.98-.67-1.94-1.08-2.88-12.24-24.97-33.78-44.14-60-53.4-7.12-2.38-14.96-.78-20.58,4.19-5.62,4.97-8.16,12.57-6.66,19.92,1.5,7.36,6.8,13.35,13.92,15.73,14.53,5.25,26.64,15.61,34.08,29.16,8.4,27.24,42.72,70.32,118.32,65.52v34.56c0,7.5,4,14.43,10.5,18.19,6.5,3.75,14.5,3.75,21,0,6.5-3.75,10.5-10.68,10.5-18.19v-111.96c1.59-12.23,6.91-23.66,15.24-32.76,3.91-3.66,6.26-8.68,6.57-14.03.31-5.35-1.44-10.61-4.9-14.7-3.46-4.09-8.36-6.69-13.68-7.27-73.2-8.52-140.88-32.64-140.88-150.84h0c-.98-28.85,10.16-56.79,30.72-77.04,2.73-2.94,4.62-6.57,5.47-10.5.84-3.93.61-8.01-.67-11.82-7.07-20.54-7.53-42.78-1.32-63.6,25.77,5.82,49.96,17.16,70.92,33.24,5.46,3.61,12.26,4.54,18.48,2.52,26.66-8.11,54.46-11.88,82.32-11.16,27.82-.72,55.58,3.04,82.2,11.16,6.22,2.04,13.03,1.11,18.48-2.52,20.18-15.46,43.29-26.69,67.92-33,6.12,21.05,5.57,43.48-1.56,64.2-1.18,3.46-1.41,7.16-.7,10.75s2.36,6.91,4.78,9.65c19.86,21.21,31.12,49.06,31.56,78.12,0,117.96-71.16,142.44-140.88,150.84-5.6.62-10.71,3.48-14.17,7.93-3.46,4.45-4.98,10.1-4.21,15.68.77,5.58,3.76,10.61,8.3,13.95,7.44,5.64,16.08,21.48,16.08,48v95.04h0c0,7.5,4,14.44,10.5,18.19,6.5,3.75,14.5,3.75,21,0,6.5-3.75,10.5-10.68,10.5-18.19v-95.04c.22-16.71-2.84-33.3-9-48.84,56.4-12,143.52-49.08,143.52-187.2h0Z"/>
  </g>
</svg>