<?xml version="1.0" encoding="UTF-8"?>
<svg id="Layer_2" xmlns="http://www.w3.org/2000/svg" viewBox="0 0 331.2 69.75">
  <defs>
    <style>
      .cls-1 {
        fill: #1e9959;
      }
    </style>
  </defs>
  <g id="Layer_1-2" data-name="Layer_1">
    <g>
      <path class="cls-1" d="M0,67.86V0h13.86v28.08c2.7-4.05,8.64-6.75,15.12-6.75,12.6,0,20.61,9.81,20.61,24.48s-8.91,23.22-21.69,23.22c-6.3,0-11.7-2.79-14.13-6.93l-.72,5.76H0ZM24.93,56.34c6.57,0,10.71-4.59,10.71-11.25s-4.14-11.25-10.71-11.25-10.98,4.5-10.98,11.25,4.5,11.25,10.98,11.25Z"/>
      <path class="cls-1" d="M98.26,22.86v45h-13.05l-.9-5.04c-2.79,3.69-8.37,6.21-13.77,6.21-10.26,0-16.56-6.84-16.56-17.91v-28.26h13.86v23.22c0,7.38,2.52,10.62,8.19,10.62s8.37-3.06,8.37-10.44v-23.4h13.86Z"/>
      <path class="cls-1" d="M106.7,67.86V0h13.86v39.06l14.58-16.2h17.37l-16.92,17.82,16.38,27.18h-16.02l-10.08-16.83-5.31,5.58v11.25h-13.86Z"/>
      <path class="cls-1" d="M175.55,22.14c13.32,0,22.14,7.29,23.04,19.08h-13.95c-.99-4.5-3.78-6.66-8.55-6.66-5.85,0-9.63,4.41-9.63,11.34s3.51,11.43,9.45,11.43c4.86,0,7.83-2.25,8.73-6.66h13.95c-.9,11.34-10.08,19.08-22.68,19.08-14.22,0-23.4-9.45-23.4-23.85s9.54-23.76,23.04-23.76Z"/>
      <path class="cls-1" d="M206.99,67.86V0h13.86v67.86h-13.86Z"/>
      <path class="cls-1" d="M275.32,22v45h-13.05l-.9-5.04c-2.79,3.69-8.37,6.21-13.77,6.21-10.26,0-16.56-6.84-16.56-17.91v-28.26h13.86v23.22c0,7.38,2.52,10.62,8.19,10.62s8.37-3.06,8.37-10.44v-23.4h13.86Z"/>
      <path class="cls-1" d="M281.62,67.86V0h13.86v28.08c2.7-4.05,8.64-6.75,15.12-6.75,12.6,0,20.61,9.81,20.61,24.48s-8.91,23.22-21.69,23.22c-6.3,0-11.7-2.79-14.13-6.93l-.72,5.76h-13.05ZM306.54,56.34c6.57,0,10.71-4.59,10.71-11.25s-4.14-11.25-10.71-11.25-10.98,4.5-10.98,11.25,4.5,11.25,10.98,11.25Z"/>
    </g>
  </g>
</svg>